<svg xmlns="http://www.w3.org/2000/svg" xmlns:xlink="http://www.w3.org/1999/xlink" width="238" zoomAndPan="magnify" viewBox="0 0 178.5 51.749998" height="69" preserveAspectRatio="xMidYMid meet" version="1.0"><defs><g/><clipPath id="fc75cfa595"><path d="M 141 28 L 154 28 L 154 42 L 141 42 Z M 141 28 " clip-rule="nonzero"/></clipPath><clipPath id="3bfd2b0101"><path d="M 143.390625 27.964844 L 154.546875 32.847656 L 149.664062 44.003906 L 138.507812 39.121094 Z M 143.390625 27.964844 " clip-rule="nonzero"/></clipPath><clipPath id="95b960816b"><path d="M 143.390625 27.964844 L 154.546875 32.847656 L 149.664062 44.003906 L 138.507812 39.121094 Z M 143.390625 27.964844 " clip-rule="nonzero"/></clipPath><clipPath id="5c626ef178"><path d="M 143.390625 27.964844 L 154.546875 32.847656 L 149.664062 44.003906 L 138.507812 39.121094 Z M 143.390625 27.964844 " clip-rule="nonzero"/></clipPath><clipPath id="0260a64e82"><path d="M 148 21 L 155 21 L 155 29 L 148 29 Z M 148 21 " clip-rule="nonzero"/></clipPath><clipPath id="dc9c4f7232"><path d="M 147.652344 23.011719 L 154.46875 21.011719 L 156.472656 27.824219 L 149.65625 29.828125 Z M 147.652344 23.011719 " clip-rule="nonzero"/></clipPath><clipPath id="62c733b009"><path d="M 147.652344 23.011719 L 154.46875 21.011719 L 156.472656 27.824219 L 149.65625 29.828125 Z M 147.652344 23.011719 " clip-rule="nonzero"/></clipPath><clipPath id="8a3215f93d"><path d="M 147.652344 23.011719 L 154.46875 21.011719 L 156.472656 27.824219 L 149.65625 29.828125 Z M 147.652344 23.011719 " clip-rule="nonzero"/></clipPath><clipPath id="10adc141f4"><path d="M 154 28 L 162 28 L 162 36 L 154 36 Z M 154 28 " clip-rule="nonzero"/></clipPath><clipPath id="1ba7f61519"><path d="M 153.875 29.84375 L 160.6875 27.839844 L 162.691406 34.65625 L 155.878906 36.65625 Z M 153.875 29.84375 " clip-rule="nonzero"/></clipPath><clipPath id="773da24a3e"><path d="M 153.875 29.84375 L 160.6875 27.839844 L 162.691406 34.65625 L 155.878906 36.65625 Z M 153.875 29.84375 " clip-rule="nonzero"/></clipPath><clipPath id="745e1761f8"><path d="M 153.875 29.84375 L 160.6875 27.839844 L 162.691406 34.65625 L 155.878906 36.65625 Z M 153.875 29.84375 " clip-rule="nonzero"/></clipPath><clipPath id="9e00049618"><path d="M 74 13 L 91 13 L 91 24 L 74 24 Z M 74 13 " clip-rule="nonzero"/></clipPath><clipPath id="647b6d8da9"><path d="M 74.558594 12.332031 L 91.03125 17.453125 L 88.921875 24.234375 L 72.453125 19.113281 Z M 74.558594 12.332031 " clip-rule="nonzero"/></clipPath><clipPath id="c0f85a463e"><path d="M 74.558594 12.332031 L 91.03125 17.453125 L 88.921875 24.234375 L 72.453125 19.113281 Z M 74.558594 12.332031 " clip-rule="nonzero"/></clipPath><clipPath id="9d9fee0757"><path d="M 74.558594 12.332031 L 91.03125 17.453125 L 88.921875 24.234375 L 72.453125 19.113281 Z M 74.558594 12.332031 " clip-rule="nonzero"/></clipPath></defs><g fill="#000000" fill-opacity="1"><g transform="translate(24.934448, 30.079623)"><g><path d="M 18.265625 -3.59375 C 18.347656 -3.539062 18.394531 -3.46875 18.40625 -3.375 C 18.414062 -3.28125 18.398438 -3.195312 18.359375 -3.125 C 18.285156 -3.03125 18.191406 -2.984375 18.078125 -2.984375 C 18.023438 -2.984375 17.976562 -2.992188 17.9375 -3.015625 C 17.800781 -3.046875 17.40625 -3.070312 16.75 -3.09375 C 16.101562 -3.125 15.335938 -3.160156 14.453125 -3.203125 C 14.203125 -2.171875 13.957031 -1.132812 13.71875 -0.09375 C 13.476562 0.9375 13.257812 1.929688 13.0625 2.890625 C 12.769531 4.265625 12.546875 5.378906 12.390625 6.234375 C 12.234375 7.097656 12.128906 7.765625 12.078125 8.234375 C 12.023438 8.710938 12 9.054688 12 9.265625 C 12.039062 9.191406 12.09375 9.109375 12.15625 9.015625 C 12.195312 8.929688 12.265625 8.875 12.359375 8.84375 C 12.453125 8.820312 12.535156 8.835938 12.609375 8.890625 C 12.691406 8.929688 12.742188 8.992188 12.765625 9.078125 C 12.785156 9.171875 12.773438 9.257812 12.734375 9.34375 C 12.617188 9.550781 12.488281 9.742188 12.34375 9.921875 C 12.195312 10.109375 12.035156 10.203125 11.859375 10.203125 C 11.796875 10.203125 11.734375 10.191406 11.671875 10.171875 C 11.566406 10.117188 11.484375 10.019531 11.421875 9.875 C 11.359375 9.726562 11.328125 9.484375 11.328125 9.140625 C 11.328125 8.804688 11.367188 8.332031 11.453125 7.71875 C 11.546875 7.113281 11.6875 6.328125 11.875 5.359375 C 12.0625 4.390625 12.304688 3.203125 12.609375 1.796875 C 12.921875 0.390625 13.304688 -1.28125 13.765625 -3.21875 C 13.179688 -3.226562 12.582031 -3.238281 11.96875 -3.25 C 11.363281 -3.269531 10.773438 -3.285156 10.203125 -3.296875 C 10.066406 -3.304688 9.929688 -3.3125 9.796875 -3.3125 C 9.671875 -3.3125 9.539062 -3.3125 9.40625 -3.3125 C 8.664062 -1.894531 7.941406 -0.566406 7.234375 0.671875 C 6.535156 1.910156 5.890625 2.925781 5.296875 3.71875 C 4.941406 4.195312 4.601562 4.515625 4.28125 4.671875 C 3.957031 4.828125 3.664062 4.882812 3.40625 4.84375 C 3.15625 4.8125 2.957031 4.75 2.8125 4.65625 C 2.425781 4.4375 2.097656 4.078125 1.828125 3.578125 C 1.554688 3.085938 1.335938 2.507812 1.171875 1.84375 C 1.015625 1.175781 0.921875 0.472656 0.890625 -0.265625 C 0.859375 -1.015625 0.894531 -1.75 1 -2.46875 C 1.113281 -3.195312 1.300781 -3.859375 1.5625 -4.453125 C 2.09375 -5.648438 2.863281 -6.453125 3.875 -6.859375 C 4.882812 -7.273438 6.078125 -7.265625 7.453125 -6.828125 C 7.546875 -6.804688 7.609375 -6.753906 7.640625 -6.671875 C 7.679688 -6.585938 7.6875 -6.5 7.65625 -6.40625 C 7.632812 -6.320312 7.582031 -6.253906 7.5 -6.203125 C 7.414062 -6.160156 7.328125 -6.160156 7.234375 -6.203125 C 6.828125 -6.328125 6.390625 -6.410156 5.921875 -6.453125 C 5.453125 -6.503906 4.984375 -6.472656 4.515625 -6.359375 C 4.054688 -6.253906 3.625 -6.023438 3.21875 -5.671875 C 2.8125 -5.328125 2.460938 -4.832031 2.171875 -4.1875 C 1.910156 -3.570312 1.734375 -2.921875 1.640625 -2.234375 C 1.546875 -1.554688 1.519531 -0.875 1.5625 -0.1875 C 1.613281 0.488281 1.710938 1.117188 1.859375 1.703125 C 2.003906 2.296875 2.1875 2.800781 2.40625 3.21875 C 2.625 3.632812 2.867188 3.921875 3.140625 4.078125 C 3.628906 4.359375 4.171875 4.101562 4.765625 3.3125 C 5.304688 2.5625 5.910156 1.601562 6.578125 0.4375 C 7.253906 -0.726562 7.945312 -1.988281 8.65625 -3.34375 C 7.226562 -3.382812 6.082031 -3.421875 5.21875 -3.453125 C 4.363281 -3.484375 3.847656 -3.515625 3.671875 -3.546875 C 3.578125 -3.566406 3.503906 -3.613281 3.453125 -3.6875 C 3.398438 -3.769531 3.382812 -3.859375 3.40625 -3.953125 C 3.414062 -4.046875 3.460938 -4.113281 3.546875 -4.15625 C 3.628906 -4.207031 3.710938 -4.226562 3.796875 -4.21875 C 3.910156 -4.195312 4.222656 -4.171875 4.734375 -4.140625 C 5.242188 -4.117188 5.875 -4.097656 6.625 -4.078125 C 7.375 -4.054688 8.171875 -4.03125 9.015625 -4 C 9.398438 -4.757812 9.785156 -5.523438 10.171875 -6.296875 C 10.566406 -7.066406 10.957031 -7.828125 11.34375 -8.578125 C 12.28125 -10.429688 13.0625 -11.960938 13.6875 -13.171875 C 14.320312 -14.390625 14.84375 -15.332031 15.25 -16 C 15.664062 -16.664062 16.003906 -17.117188 16.265625 -17.359375 C 16.535156 -17.597656 16.769531 -17.679688 16.96875 -17.609375 C 17.175781 -17.523438 17.296875 -17.351562 17.328125 -17.09375 C 17.367188 -16.832031 17.367188 -16.507812 17.328125 -16.125 C 17.265625 -15.363281 17.0625 -14.226562 16.71875 -12.71875 C 16.613281 -12.207031 16.460938 -11.5625 16.265625 -10.78125 C 16.078125 -10 15.867188 -9.132812 15.640625 -8.1875 C 15.484375 -7.519531 15.316406 -6.816406 15.140625 -6.078125 C 14.960938 -5.347656 14.785156 -4.609375 14.609375 -3.859375 C 15.597656 -3.828125 16.34375 -3.796875 16.84375 -3.765625 C 17.34375 -3.742188 17.691406 -3.71875 17.890625 -3.6875 C 18.085938 -3.664062 18.210938 -3.632812 18.265625 -3.59375 Z M 10.21875 -3.984375 C 10.96875 -3.960938 11.644531 -3.941406 12.25 -3.921875 C 12.863281 -3.910156 13.421875 -3.894531 13.921875 -3.875 C 14.242188 -5.238281 14.597656 -6.726562 14.984375 -8.34375 C 15.210938 -9.289062 15.421875 -10.15625 15.609375 -10.9375 C 15.796875 -11.726562 15.945312 -12.367188 16.0625 -12.859375 C 16.25 -13.742188 16.390625 -14.457031 16.484375 -15 C 16.578125 -15.539062 16.632812 -15.953125 16.65625 -16.234375 C 16.6875 -16.523438 16.695312 -16.726562 16.6875 -16.84375 C 16.488281 -16.644531 16.210938 -16.253906 15.859375 -15.671875 C 15.503906 -15.097656 15.109375 -14.398438 14.671875 -13.578125 C 14.234375 -12.753906 13.78125 -11.878906 13.3125 -10.953125 C 12.84375 -10.035156 12.382812 -9.140625 11.9375 -8.265625 C 11.59375 -7.566406 11.234375 -6.859375 10.859375 -6.140625 C 10.492188 -5.421875 10.128906 -4.703125 9.765625 -3.984375 C 9.835938 -3.984375 9.910156 -3.984375 9.984375 -3.984375 C 10.054688 -3.984375 10.132812 -3.984375 10.21875 -3.984375 Z M 10.21875 -3.984375 "/></g></g></g><g fill="#000000" fill-opacity="1"><g transform="translate(44.222862, 30.079623)"><g><path d="M 7.8125 -4.015625 C 7.882812 -3.960938 7.925781 -3.890625 7.9375 -3.796875 C 7.945312 -3.703125 7.914062 -3.617188 7.84375 -3.546875 C 7.507812 -3.148438 7.132812 -2.710938 6.71875 -2.234375 C 6.3125 -1.753906 5.910156 -1.285156 5.515625 -0.828125 C 5.128906 -0.367188 4.796875 0.0234375 4.515625 0.359375 C 4.234375 0.691406 4.046875 0.914062 3.953125 1.03125 C 3.753906 1.289062 3.5625 1.546875 3.375 1.796875 C 3.519531 2.472656 3.53125 3.113281 3.40625 3.71875 C 3.289062 4.320312 3.085938 4.859375 2.796875 5.328125 C 2.515625 5.796875 2.210938 6.15625 1.890625 6.40625 C 1.566406 6.6875 1.265625 6.828125 0.984375 6.828125 C 0.804688 6.828125 0.660156 6.769531 0.546875 6.65625 C 0.347656 6.46875 0.28125 6.1875 0.34375 5.8125 C 0.40625 5.445312 0.550781 5.03125 0.78125 4.5625 C 1.019531 4.09375 1.300781 3.609375 1.625 3.109375 C 1.957031 2.609375 2.296875 2.125 2.640625 1.65625 C 2.578125 1.4375 2.492188 1.21875 2.390625 1 C 2.285156 0.789062 2.160156 0.570312 2.015625 0.34375 C 1.535156 -0.375 1.128906 -1.050781 0.796875 -1.6875 C 0.460938 -2.332031 0.304688 -2.914062 0.328125 -3.4375 C 0.390625 -4.414062 0.828125 -5.144531 1.640625 -5.625 C 1.960938 -5.820312 2.304688 -5.9375 2.671875 -5.96875 C 3.035156 -6.007812 3.367188 -5.957031 3.671875 -5.8125 C 3.753906 -5.769531 3.804688 -5.703125 3.828125 -5.609375 C 3.859375 -5.523438 3.859375 -5.441406 3.828125 -5.359375 C 3.785156 -5.273438 3.71875 -5.21875 3.625 -5.1875 C 3.539062 -5.15625 3.457031 -5.160156 3.375 -5.203125 C 2.945312 -5.398438 2.484375 -5.347656 1.984375 -5.046875 C 1.378906 -4.679688 1.054688 -4.132812 1.015625 -3.40625 C 0.992188 -2.96875 1.140625 -2.457031 1.453125 -1.875 C 1.773438 -1.289062 2.148438 -0.675781 2.578125 -0.03125 C 2.804688 0.300781 2.988281 0.644531 3.125 1 C 3.21875 0.882812 3.316406 0.753906 3.421875 0.609375 C 3.515625 0.492188 3.703125 0.269531 3.984375 -0.0625 C 4.273438 -0.40625 4.613281 -0.804688 5 -1.265625 C 5.382812 -1.722656 5.785156 -2.191406 6.203125 -2.671875 C 6.617188 -3.148438 7 -3.585938 7.34375 -3.984375 C 7.394531 -4.054688 7.46875 -4.097656 7.5625 -4.109375 C 7.65625 -4.117188 7.738281 -4.085938 7.8125 -4.015625 Z M 2.109375 5.15625 C 2.191406 5.03125 2.289062 4.847656 2.40625 4.609375 C 2.519531 4.367188 2.617188 4.078125 2.703125 3.734375 C 2.796875 3.390625 2.828125 3.003906 2.796875 2.578125 C 2.253906 3.335938 1.847656 3.96875 1.578125 4.46875 C 1.316406 4.976562 1.148438 5.363281 1.078125 5.625 C 1.003906 5.894531 0.976562 6.066406 1 6.140625 C 1.082031 6.140625 1.226562 6.0625 1.4375 5.90625 C 1.644531 5.757812 1.867188 5.507812 2.109375 5.15625 Z M 2.109375 5.15625 "/></g></g></g><g fill="#000000" fill-opacity="1"><g transform="translate(51.302308, 30.079623)"><g><path d="M 8.328125 -4.015625 C 8.398438 -3.972656 8.445312 -3.90625 8.46875 -3.8125 C 8.488281 -3.71875 8.476562 -3.628906 8.4375 -3.546875 C 7.875 -2.640625 7.375 -1.90625 6.9375 -1.34375 C 6.5 -0.789062 6.125 -0.363281 5.8125 -0.0625 C 5.507812 0.226562 5.25 0.425781 5.03125 0.53125 C 4.820312 0.632812 4.65625 0.6875 4.53125 0.6875 C 4.40625 0.6875 4.304688 0.679688 4.234375 0.671875 C 3.960938 0.597656 3.757812 0.4375 3.625 0.1875 C 3.5 -0.0625 3.414062 -0.320312 3.375 -0.59375 C 3.332031 -0.863281 3.304688 -1.070312 3.296875 -1.21875 C 3.273438 -1.625 3.226562 -1.894531 3.15625 -2.03125 C 3.09375 -2.175781 3.039062 -2.25 3 -2.25 C 2.988281 -2.25 2.984375 -2.25 2.984375 -2.25 C 2.828125 -2.25 2.570312 -2.035156 2.21875 -1.609375 C 1.875 -1.179688 1.460938 -0.507812 0.984375 0.40625 C 0.515625 1.320312 0.0234375 2.507812 -0.484375 3.96875 C -0.535156 4.125 -0.644531 4.203125 -0.8125 4.203125 C -0.832031 4.203125 -0.851562 4.203125 -0.875 4.203125 C -1.0625 4.148438 -1.148438 4.03125 -1.140625 3.84375 C -1.128906 3.644531 -1.078125 3.285156 -0.984375 2.765625 C -0.890625 2.253906 -0.765625 1.640625 -0.609375 0.921875 C -0.453125 0.203125 -0.273438 -0.578125 -0.078125 -1.421875 C 0.109375 -2.265625 0.304688 -3.117188 0.515625 -3.984375 C 0.722656 -4.847656 0.921875 -5.675781 1.109375 -6.46875 C 1.296875 -7.257812 1.460938 -7.96875 1.609375 -8.59375 C 1.765625 -9.226562 1.890625 -9.738281 1.984375 -10.125 C 2.078125 -10.507812 2.125 -10.707031 2.125 -10.71875 C 2.394531 -11.789062 2.691406 -12.769531 3.015625 -13.65625 C 3.347656 -14.539062 3.675781 -15.25 4 -15.78125 C 4.320312 -16.320312 4.601562 -16.617188 4.84375 -16.671875 C 5.039062 -16.703125 5.191406 -16.640625 5.296875 -16.484375 C 5.460938 -16.253906 5.445312 -15.765625 5.25 -15.015625 C 5.0625 -14.273438 4.710938 -13.335938 4.203125 -12.203125 C 3.691406 -11.066406 3.046875 -9.796875 2.265625 -8.390625 C 2.054688 -7.515625 1.820312 -6.554688 1.5625 -5.515625 C 1.3125 -4.472656 1.066406 -3.425781 0.828125 -2.375 C 0.585938 -1.320312 0.367188 -0.347656 0.171875 0.546875 C 0.492188 -0.117188 0.820312 -0.722656 1.15625 -1.265625 C 1.488281 -1.804688 1.820312 -2.222656 2.15625 -2.515625 C 2.488281 -2.816406 2.800781 -2.953125 3.09375 -2.921875 C 3.351562 -2.878906 3.539062 -2.742188 3.65625 -2.515625 C 3.78125 -2.296875 3.863281 -2.0625 3.90625 -1.8125 C 3.945312 -1.5625 3.96875 -1.378906 3.96875 -1.265625 C 4 -0.828125 4.054688 -0.507812 4.140625 -0.3125 C 4.222656 -0.113281 4.304688 -0.0078125 4.390625 0 C 4.410156 0.0078125 4.488281 -0.00390625 4.625 -0.046875 C 4.757812 -0.0859375 4.957031 -0.21875 5.21875 -0.4375 C 5.488281 -0.65625 5.835938 -1.035156 6.265625 -1.578125 C 6.703125 -2.128906 7.226562 -2.910156 7.84375 -3.921875 C 7.894531 -3.984375 7.96875 -4.023438 8.0625 -4.046875 C 8.15625 -4.078125 8.242188 -4.066406 8.328125 -4.015625 Z M 4.71875 -15.6875 C 4.519531 -15.394531 4.253906 -14.875 3.921875 -14.125 C 3.585938 -13.382812 3.253906 -12.375 2.921875 -11.09375 C 3.515625 -12.28125 3.945312 -13.253906 4.21875 -14.015625 C 4.5 -14.773438 4.664062 -15.332031 4.71875 -15.6875 Z M 4.71875 -15.6875 "/></g></g></g><g fill="#000000" fill-opacity="1"><g transform="translate(58.873626, 30.079623)"><g><path d="M 7.359375 -3.90625 C 7.441406 -3.863281 7.492188 -3.796875 7.515625 -3.703125 C 7.546875 -3.617188 7.546875 -3.535156 7.515625 -3.453125 C 7.296875 -3.003906 7.050781 -2.550781 6.78125 -2.09375 C 6.519531 -1.632812 6.242188 -1.210938 5.953125 -0.828125 C 5.671875 -0.453125 5.378906 -0.148438 5.078125 0.078125 C 4.773438 0.304688 4.46875 0.421875 4.15625 0.421875 C 4.101562 0.421875 4.039062 0.414062 3.96875 0.40625 C 3.1875 0.25 2.703125 -0.800781 2.515625 -2.75 C 2.316406 -2.488281 2.082031 -2.191406 1.8125 -1.859375 C 1.550781 -1.523438 1.273438 -1.191406 0.984375 -0.859375 C 0.929688 -0.816406 0.851562 -0.742188 0.75 -0.640625 C 0.644531 -0.535156 0.519531 -0.453125 0.375 -0.390625 C 0.238281 -0.335938 0.101562 -0.347656 -0.03125 -0.421875 C -0.3125 -0.523438 -0.445312 -0.828125 -0.4375 -1.328125 C -0.4375 -1.628906 -0.378906 -1.992188 -0.265625 -2.421875 C -0.160156 -2.859375 -0.00390625 -3.296875 0.203125 -3.734375 C 0.410156 -4.171875 0.648438 -4.554688 0.921875 -4.890625 C 1.191406 -5.234375 1.5 -5.460938 1.84375 -5.578125 C 2.050781 -5.660156 2.304688 -5.675781 2.609375 -5.625 C 2.921875 -5.570312 3.238281 -5.351562 3.5625 -4.96875 C 3.625 -4.894531 3.648438 -4.8125 3.640625 -4.71875 C 3.640625 -4.625 3.601562 -4.550781 3.53125 -4.5 C 3.457031 -4.4375 3.375 -4.40625 3.28125 -4.40625 C 3.1875 -4.414062 3.113281 -4.457031 3.0625 -4.53125 C 2.78125 -4.851562 2.535156 -5.003906 2.328125 -4.984375 C 2.117188 -4.972656 1.945312 -4.914062 1.8125 -4.8125 C 1.550781 -4.625 1.316406 -4.351562 1.109375 -4 C 0.898438 -3.65625 0.722656 -3.285156 0.578125 -2.890625 C 0.441406 -2.503906 0.34375 -2.144531 0.28125 -1.8125 C 0.21875 -1.476562 0.203125 -1.238281 0.234375 -1.09375 C 0.265625 -1.113281 0.300781 -1.140625 0.34375 -1.171875 C 0.382812 -1.210938 0.425781 -1.257812 0.46875 -1.3125 C 0.820312 -1.695312 1.144531 -2.078125 1.4375 -2.453125 C 1.726562 -2.835938 1.976562 -3.179688 2.1875 -3.484375 C 2.25 -3.554688 2.304688 -3.628906 2.359375 -3.703125 C 2.410156 -3.785156 2.460938 -3.859375 2.515625 -3.921875 C 2.609375 -4.035156 2.726562 -4.066406 2.875 -4.015625 C 3.03125 -3.984375 3.113281 -3.882812 3.125 -3.71875 C 3.15625 -2.957031 3.210938 -2.34375 3.296875 -1.875 C 3.390625 -1.414062 3.488281 -1.070312 3.59375 -0.84375 C 3.707031 -0.625 3.8125 -0.472656 3.90625 -0.390625 C 4 -0.304688 4.066406 -0.265625 4.109375 -0.265625 C 4.328125 -0.210938 4.679688 -0.4375 5.171875 -0.9375 C 5.671875 -1.445312 6.25 -2.378906 6.90625 -3.734375 C 6.945312 -3.828125 7.007812 -3.890625 7.09375 -3.921875 C 7.1875 -3.953125 7.273438 -3.945312 7.359375 -3.90625 Z M 7.359375 -3.90625 "/></g></g></g><g fill="#000000" fill-opacity="1"><g transform="translate(65.408498, 30.079623)"><g><path d="M 7.40625 -3.9375 C 7.488281 -3.882812 7.539062 -3.8125 7.5625 -3.71875 C 7.59375 -3.625 7.578125 -3.546875 7.515625 -3.484375 C 7.023438 -2.671875 6.460938 -1.960938 5.828125 -1.359375 C 5.191406 -0.753906 4.539062 -0.238281 3.875 0.1875 C 3.21875 0.625 2.585938 0.984375 1.984375 1.265625 C 1.378906 1.554688 0.847656 1.78125 0.390625 1.9375 C 0.222656 1.988281 0.09375 1.941406 0 1.796875 C -0.1875 2.265625 -0.347656 2.722656 -0.484375 3.171875 C -0.535156 3.328125 -0.648438 3.40625 -0.828125 3.40625 C -0.835938 3.40625 -0.851562 3.40625 -0.875 3.40625 C -1.0625 3.375 -1.15625 3.265625 -1.15625 3.078125 C -1.15625 2.972656 -1.113281 2.710938 -1.03125 2.296875 C -0.945312 1.890625 -0.835938 1.363281 -0.703125 0.71875 C -0.578125 0.0820312 -0.425781 -0.617188 -0.25 -1.390625 C -0.0703125 -2.171875 0.109375 -2.976562 0.296875 -3.8125 C 0.484375 -4.644531 0.664062 -5.460938 0.84375 -6.265625 C 1.03125 -7.066406 1.207031 -7.804688 1.375 -8.484375 C 1.375 -8.515625 1.378906 -8.550781 1.390625 -8.59375 C 1.585938 -9.4375 1.75 -10.113281 1.875 -10.625 C 2.144531 -11.695312 2.441406 -12.675781 2.765625 -13.5625 C 3.097656 -14.445312 3.425781 -15.160156 3.75 -15.703125 C 4.070312 -16.242188 4.351562 -16.535156 4.59375 -16.578125 C 4.800781 -16.609375 4.957031 -16.550781 5.0625 -16.40625 C 5.21875 -16.164062 5.195312 -15.675781 5 -14.9375 C 4.8125 -14.207031 4.460938 -13.273438 3.953125 -12.140625 C 3.453125 -11.015625 2.8125 -9.75 2.03125 -8.34375 C 1.84375 -7.5625 1.644531 -6.710938 1.4375 -5.796875 C 1.226562 -4.878906 1.019531 -3.957031 0.8125 -3.03125 C 0.613281 -2.113281 0.425781 -1.253906 0.25 -0.453125 C 0.570312 -1.128906 0.882812 -1.679688 1.1875 -2.109375 C 2.101562 -3.378906 2.832031 -3.9375 3.375 -3.78125 C 3.476562 -3.738281 3.59375 -3.65625 3.71875 -3.53125 C 3.84375 -3.414062 3.910156 -3.1875 3.921875 -2.84375 C 3.929688 -2.488281 3.84375 -2.039062 3.65625 -1.5 C 3.46875 -0.96875 3.179688 -0.4375 2.796875 0.09375 C 3.671875 -0.425781 4.460938 -1.019531 5.171875 -1.6875 C 5.890625 -2.351562 6.484375 -3.066406 6.953125 -3.828125 C 7.003906 -3.910156 7.070312 -3.957031 7.15625 -3.96875 C 7.238281 -3.988281 7.320312 -3.976562 7.40625 -3.9375 Z M 4.484375 -15.609375 C 4.285156 -15.304688 4.015625 -14.78125 3.671875 -14.03125 C 3.335938 -13.289062 3.007812 -12.289062 2.6875 -11.03125 C 3.269531 -12.207031 3.695312 -13.171875 3.96875 -13.921875 C 4.25 -14.679688 4.421875 -15.242188 4.484375 -15.609375 Z M 0.1875 1.28125 C 0.789062 1.0625 1.300781 0.734375 1.71875 0.296875 C 2.144531 -0.128906 2.476562 -0.582031 2.71875 -1.0625 C 2.957031 -1.550781 3.109375 -1.972656 3.171875 -2.328125 C 3.234375 -2.585938 3.253906 -2.78125 3.234375 -2.90625 C 3.210938 -3.03125 3.191406 -3.101562 3.171875 -3.125 C 3.148438 -3.125 3.085938 -3.097656 2.984375 -3.046875 C 2.878906 -2.992188 2.726562 -2.867188 2.53125 -2.671875 C 2.332031 -2.484375 2.070312 -2.164062 1.75 -1.71875 C 1.507812 -1.363281 1.25 -0.925781 0.96875 -0.40625 C 0.695312 0.113281 0.4375 0.675781 0.1875 1.28125 Z M 0.1875 1.28125 "/></g></g></g><g fill="#000000" fill-opacity="1"><g transform="translate(72.01364, 30.079623)"><g><path d="M 7 -3.796875 C 7.070312 -3.742188 7.117188 -3.671875 7.140625 -3.578125 C 7.171875 -3.484375 7.160156 -3.40625 7.109375 -3.34375 C 7.015625 -3.1875 6.863281 -2.945312 6.65625 -2.625 C 6.457031 -2.3125 6.210938 -1.960938 5.921875 -1.578125 C 5.640625 -1.203125 5.335938 -0.835938 5.015625 -0.484375 C 4.691406 -0.128906 4.367188 0.160156 4.046875 0.390625 C 3.734375 0.628906 3.441406 0.75 3.171875 0.75 C 3.078125 0.75 3 0.734375 2.9375 0.703125 C 2.644531 0.597656 2.457031 0.332031 2.375 -0.09375 C 2.300781 -0.53125 2.328125 -1.160156 2.453125 -1.984375 C 2.304688 -1.785156 2.144531 -1.578125 1.96875 -1.359375 C 1.789062 -1.148438 1.601562 -0.960938 1.40625 -0.796875 C 1.101562 -0.535156 0.84375 -0.425781 0.625 -0.46875 C 0.414062 -0.519531 0.273438 -0.582031 0.203125 -0.65625 C -0.00390625 -0.820312 -0.132812 -1.082031 -0.1875 -1.4375 C -0.238281 -1.800781 -0.21875 -2.203125 -0.125 -2.640625 C -0.0390625 -3.078125 0.113281 -3.503906 0.34375 -3.921875 C 0.394531 -4.003906 0.46875 -4.054688 0.5625 -4.078125 C 0.65625 -4.097656 0.742188 -4.085938 0.828125 -4.046875 C 0.910156 -3.992188 0.960938 -3.921875 0.984375 -3.828125 C 1.003906 -3.742188 0.992188 -3.660156 0.953125 -3.578125 C 0.734375 -3.234375 0.585938 -2.882812 0.515625 -2.53125 C 0.453125 -2.1875 0.4375 -1.890625 0.46875 -1.640625 C 0.5 -1.398438 0.550781 -1.242188 0.625 -1.171875 C 0.675781 -1.140625 0.738281 -1.148438 0.8125 -1.203125 C 0.894531 -1.253906 0.945312 -1.285156 0.96875 -1.296875 C 1.1875 -1.492188 1.394531 -1.722656 1.59375 -1.984375 C 1.789062 -2.242188 1.960938 -2.476562 2.109375 -2.6875 C 2.296875 -2.945312 2.445312 -3.132812 2.5625 -3.25 C 2.6875 -3.375 2.832031 -3.40625 3 -3.34375 C 3.164062 -3.28125 3.25 -3.148438 3.25 -2.953125 C 3.25 -2.753906 3.21875 -2.484375 3.15625 -2.140625 C 3.039062 -1.460938 2.988281 -0.96875 3 -0.65625 C 3.007812 -0.34375 3.035156 -0.144531 3.078125 -0.0625 C 3.128906 0.0195312 3.160156 0.0625 3.171875 0.0625 C 3.316406 0.125 3.703125 -0.148438 4.328125 -0.765625 C 4.960938 -1.378906 5.695312 -2.351562 6.53125 -3.6875 C 6.582031 -3.769531 6.65625 -3.816406 6.75 -3.828125 C 6.84375 -3.847656 6.925781 -3.835938 7 -3.796875 Z M 7 -3.796875 "/></g></g></g><g fill="#000000" fill-opacity="1"><g transform="translate(78.302575, 30.079623)"><g><path d="M 5.15625 -16.453125 C 5.3125 -16.234375 5.316406 -15.78125 5.171875 -15.09375 C 5.023438 -14.414062 4.722656 -13.578125 4.265625 -12.578125 C 3.804688 -11.578125 3.195312 -10.46875 2.4375 -9.25 C 2.425781 -9.238281 2.414062 -9.226562 2.40625 -9.21875 C 2.101562 -7.976562 1.800781 -6.710938 1.5 -5.421875 C 1.195312 -4.140625 0.910156 -2.875 0.640625 -1.625 C 0.378906 -0.382812 0.140625 0.78125 -0.078125 1.875 C -0.304688 2.96875 -0.5 3.941406 -0.65625 4.796875 C -0.8125 5.648438 -0.925781 6.332031 -1 6.84375 C -0.988281 6.84375 -0.976562 6.84375 -0.96875 6.84375 C -0.875 6.882812 -0.804688 6.941406 -0.765625 7.015625 C -0.722656 7.097656 -0.71875 7.1875 -0.75 7.28125 C -0.832031 7.507812 -0.914062 7.710938 -1 7.890625 C -1.09375 8.078125 -1.21875 8.171875 -1.375 8.171875 C -1.40625 8.171875 -1.445312 8.164062 -1.5 8.15625 C -1.601562 8.113281 -1.675781 8.035156 -1.71875 7.921875 C -1.769531 7.816406 -1.773438 7.597656 -1.734375 7.265625 C -1.703125 6.929688 -1.628906 6.414062 -1.515625 5.71875 C -1.296875 4.457031 -0.976562 2.804688 -0.5625 0.765625 C -0.257812 -0.660156 0.0546875 -2.113281 0.390625 -3.59375 C 0.722656 -5.070312 1.050781 -6.5 1.375 -7.875 C 1.707031 -9.25 2.023438 -10.5 2.328125 -11.625 C 2.390625 -11.84375 2.476562 -12.148438 2.59375 -12.546875 C 2.71875 -12.953125 2.851562 -13.382812 3 -13.84375 C 3.15625 -14.300781 3.328125 -14.738281 3.515625 -15.15625 C 3.703125 -15.570312 3.894531 -15.914062 4.09375 -16.1875 C 4.289062 -16.46875 4.488281 -16.628906 4.6875 -16.671875 C 4.882812 -16.703125 5.039062 -16.628906 5.15625 -16.453125 Z M 3.015625 -11.578125 C 3.578125 -12.628906 3.972656 -13.503906 4.203125 -14.203125 C 4.429688 -14.910156 4.5625 -15.421875 4.59375 -15.734375 C 4.4375 -15.503906 4.21875 -15.0625 3.9375 -14.40625 C 3.65625 -13.757812 3.347656 -12.816406 3.015625 -11.578125 Z M 3.015625 -11.578125 "/></g></g></g><g fill="#000000" fill-opacity="1"><g transform="translate(110.471461, 30.079623)"><g><path d="M 17.15625 -4.015625 C 17.21875 -3.941406 17.238281 -3.859375 17.21875 -3.765625 C 17.195312 -3.679688 17.148438 -3.609375 17.078125 -3.546875 C 15.253906 -2.242188 13.59375 -1.015625 12.09375 0.140625 C 12.25 0.617188 12.269531 1.144531 12.15625 1.71875 C 11.96875 2.71875 11.628906 3.644531 11.140625 4.5 C 10.660156 5.363281 10.09375 6.148438 9.4375 6.859375 C 8.789062 7.566406 8.113281 8.175781 7.40625 8.6875 C 6.695312 9.195312 6.019531 9.59375 5.375 9.875 C 4.726562 10.164062 4.171875 10.328125 3.703125 10.359375 C 3.628906 10.367188 3.566406 10.375 3.515625 10.375 C 3.148438 10.375 2.890625 10.300781 2.734375 10.15625 C 2.585938 10.007812 2.488281 9.875 2.4375 9.75 C 2.164062 9.007812 2.796875 7.789062 4.328125 6.09375 C 5.859375 4.40625 8.175781 2.351562 11.28125 -0.0625 C 10.894531 -0.757812 10.117188 -1.398438 8.953125 -1.984375 C 7.785156 -2.566406 6.242188 -3.242188 4.328125 -4.015625 C 4.097656 -4.109375 3.863281 -4.203125 3.625 -4.296875 C 3.394531 -4.390625 3.160156 -4.488281 2.921875 -4.59375 C 2.078125 -4.945312 1.488281 -5.421875 1.15625 -6.015625 C 0.832031 -6.617188 0.789062 -7.304688 1.03125 -8.078125 C 1.21875 -8.671875 1.546875 -9.28125 2.015625 -9.90625 C 2.484375 -10.53125 3.050781 -11.148438 3.71875 -11.765625 C 4.382812 -12.378906 5.109375 -12.960938 5.890625 -13.515625 C 6.679688 -14.066406 7.484375 -14.570312 8.296875 -15.03125 C 9.117188 -15.488281 9.921875 -15.875 10.703125 -16.1875 C 11.492188 -16.507812 12.21875 -16.734375 12.875 -16.859375 C 13.539062 -16.984375 14.101562 -16.992188 14.5625 -16.890625 C 14.75 -16.847656 14.957031 -16.757812 15.1875 -16.625 C 15.414062 -16.5 15.59375 -16.289062 15.71875 -16 C 15.851562 -15.71875 15.894531 -15.328125 15.84375 -14.828125 C 15.820312 -14.734375 15.773438 -14.660156 15.703125 -14.609375 C 15.628906 -14.554688 15.546875 -14.535156 15.453125 -14.546875 C 15.359375 -14.554688 15.28125 -14.597656 15.21875 -14.671875 C 15.164062 -14.742188 15.144531 -14.828125 15.15625 -14.921875 C 15.226562 -15.421875 15.175781 -15.75 15 -15.90625 C 14.820312 -16.070312 14.628906 -16.179688 14.421875 -16.234375 C 13.972656 -16.335938 13.382812 -16.300781 12.65625 -16.125 C 11.925781 -15.945312 11.109375 -15.648438 10.203125 -15.234375 C 9.296875 -14.816406 8.367188 -14.304688 7.421875 -13.703125 C 6.421875 -13.066406 5.519531 -12.40625 4.71875 -11.71875 C 3.914062 -11.039062 3.253906 -10.375 2.734375 -9.71875 C 2.210938 -9.0625 1.863281 -8.453125 1.6875 -7.890625 C 1.300781 -6.679688 1.796875 -5.789062 3.171875 -5.21875 C 3.421875 -5.125 3.660156 -5.03125 3.890625 -4.9375 C 4.117188 -4.84375 4.347656 -4.75 4.578125 -4.65625 C 5.765625 -4.175781 6.835938 -3.722656 7.796875 -3.296875 C 8.765625 -2.867188 9.59375 -2.429688 10.28125 -1.984375 C 10.96875 -1.535156 11.476562 -1.035156 11.8125 -0.484375 C 13.289062 -1.640625 14.914062 -2.84375 16.6875 -4.09375 C 16.769531 -4.15625 16.851562 -4.175781 16.9375 -4.15625 C 17.03125 -4.132812 17.101562 -4.085938 17.15625 -4.015625 Z M 11.5 1.578125 C 11.570312 1.222656 11.578125 0.894531 11.515625 0.59375 C 9.023438 2.550781 7.046875 4.273438 5.578125 5.765625 C 4.722656 6.640625 4.066406 7.414062 3.609375 8.09375 C 3.160156 8.78125 2.984375 9.253906 3.078125 9.515625 C 3.109375 9.609375 3.1875 9.664062 3.3125 9.6875 C 3.445312 9.707031 3.5625 9.707031 3.65625 9.6875 C 4.039062 9.664062 4.523438 9.519531 5.109375 9.25 C 5.691406 8.976562 6.3125 8.601562 6.96875 8.125 C 7.625 7.65625 8.257812 7.09375 8.875 6.4375 C 9.5 5.789062 10.046875 5.054688 10.515625 4.234375 C 10.984375 3.410156 11.3125 2.523438 11.5 1.578125 Z M 11.5 1.578125 "/></g></g></g><g fill="#000000" fill-opacity="1"><g transform="translate(126.949178, 30.079623)"><g><path d="M 5.140625 -4 C 5.222656 -3.957031 5.273438 -3.890625 5.296875 -3.796875 C 5.316406 -3.703125 5.300781 -3.613281 5.25 -3.53125 C 5.03125 -3.175781 4.75 -2.78125 4.40625 -2.34375 C 4.070312 -1.914062 3.703125 -1.503906 3.296875 -1.109375 C 2.898438 -0.722656 2.503906 -0.398438 2.109375 -0.140625 C 1.722656 0.117188 1.363281 0.25 1.03125 0.25 C 0.894531 0.25 0.773438 0.222656 0.671875 0.171875 C 0.265625 -0.00390625 0.0390625 -0.425781 0 -1.09375 C -0.03125 -1.769531 0.109375 -2.722656 0.421875 -3.953125 C 0.441406 -4.046875 0.492188 -4.113281 0.578125 -4.15625 C 0.660156 -4.207031 0.742188 -4.222656 0.828125 -4.203125 C 0.921875 -4.171875 0.988281 -4.113281 1.03125 -4.03125 C 1.082031 -3.957031 1.097656 -3.878906 1.078125 -3.796875 C 0.890625 -3.046875 0.769531 -2.453125 0.71875 -2.015625 C 0.675781 -1.578125 0.664062 -1.242188 0.6875 -1.015625 C 0.71875 -0.796875 0.757812 -0.644531 0.8125 -0.5625 C 0.875 -0.488281 0.914062 -0.453125 0.9375 -0.453125 C 1.082031 -0.378906 1.300781 -0.425781 1.59375 -0.59375 C 1.882812 -0.769531 2.210938 -1.023438 2.578125 -1.359375 C 2.941406 -1.691406 3.304688 -2.078125 3.671875 -2.515625 C 4.046875 -2.953125 4.378906 -3.414062 4.671875 -3.90625 C 4.734375 -3.976562 4.804688 -4.023438 4.890625 -4.046875 C 4.972656 -4.066406 5.054688 -4.050781 5.140625 -4 Z M 1 -5.40625 C 0.769531 -5.414062 0.648438 -5.484375 0.640625 -5.609375 C 0.628906 -5.734375 0.679688 -5.859375 0.796875 -5.984375 C 0.910156 -6.117188 1.023438 -6.207031 1.140625 -6.25 C 1.328125 -6.3125 1.460938 -6.300781 1.546875 -6.21875 C 1.640625 -6.132812 1.679688 -6.023438 1.671875 -5.890625 C 1.671875 -5.765625 1.613281 -5.648438 1.5 -5.546875 C 1.382812 -5.441406 1.21875 -5.394531 1 -5.40625 Z M 1 -5.40625 "/></g></g></g><g fill="#000000" fill-opacity="1"><g transform="translate(131.393595, 30.079623)"><g><path d="M 14.828125 -10.359375 C 14.878906 -10.285156 14.898438 -10.203125 14.890625 -10.109375 C 14.878906 -10.015625 14.832031 -9.941406 14.75 -9.890625 C 14.613281 -9.796875 14.476562 -9.800781 14.34375 -9.90625 C 14.195312 -9.96875 13.847656 -10.007812 13.296875 -10.03125 C 12.753906 -10.050781 12.070312 -10.0625 11.25 -10.0625 C 10.4375 -10.070312 9.535156 -10.070312 8.546875 -10.0625 C 7.566406 -10.050781 6.554688 -10.035156 5.515625 -10.015625 C 4.484375 -10.003906 3.484375 -9.984375 2.515625 -9.953125 C 2.148438 -8.429688 1.765625 -6.773438 1.359375 -4.984375 C 0.960938 -3.203125 0.570312 -1.394531 0.1875 0.4375 C -0.3125 2.851562 -0.695312 4.832031 -0.96875 6.375 C -1.25 7.914062 -1.429688 9.035156 -1.515625 9.734375 C -1.484375 9.734375 -1.457031 9.738281 -1.4375 9.75 C -1.34375 9.769531 -1.273438 9.820312 -1.234375 9.90625 C -1.203125 10 -1.207031 10.085938 -1.25 10.171875 C -1.320312 10.367188 -1.398438 10.550781 -1.484375 10.71875 C -1.566406 10.882812 -1.6875 10.96875 -1.84375 10.96875 C -1.875 10.96875 -1.914062 10.960938 -1.96875 10.953125 C -2.132812 10.898438 -2.222656 10.773438 -2.234375 10.578125 C -2.253906 10.390625 -2.238281 10.125 -2.1875 9.78125 C -2.144531 9.289062 -2.039062 8.582031 -1.875 7.65625 C -1.738281 6.789062 -1.554688 5.773438 -1.328125 4.609375 C -1.109375 3.453125 -0.851562 2.1875 -0.5625 0.8125 C -0.175781 -1.0625 0.21875 -2.921875 0.625 -4.765625 C 1.039062 -6.617188 1.4375 -8.34375 1.8125 -9.9375 C 1.25 -9.925781 0.710938 -9.914062 0.203125 -9.90625 C -0.296875 -9.894531 -0.75 -9.882812 -1.15625 -9.875 C -1.9375 -9.84375 -2.617188 -9.820312 -3.203125 -9.8125 C -3.796875 -9.800781 -4.210938 -9.796875 -4.453125 -9.796875 C -4.546875 -9.796875 -4.625 -9.828125 -4.6875 -9.890625 C -4.757812 -9.960938 -4.796875 -10.046875 -4.796875 -10.140625 C -4.796875 -10.234375 -4.757812 -10.3125 -4.6875 -10.375 C -4.625 -10.4375 -4.546875 -10.46875 -4.453125 -10.46875 C -4.210938 -10.46875 -3.800781 -10.472656 -3.21875 -10.484375 C -2.644531 -10.503906 -1.960938 -10.53125 -1.171875 -10.5625 C -0.609375 -10.570312 -0.0664062 -10.582031 0.453125 -10.59375 C 0.984375 -10.601562 1.492188 -10.613281 1.984375 -10.625 C 2.160156 -11.375 2.332031 -12.078125 2.5 -12.734375 C 2.664062 -13.398438 2.828125 -14.007812 2.984375 -14.5625 C 3.003906 -14.65625 3.054688 -14.722656 3.140625 -14.765625 C 3.222656 -14.816406 3.304688 -14.832031 3.390625 -14.8125 C 3.484375 -14.78125 3.550781 -14.722656 3.59375 -14.640625 C 3.644531 -14.566406 3.660156 -14.484375 3.640625 -14.390625 C 3.359375 -13.347656 3.035156 -12.097656 2.671875 -10.640625 C 4.492188 -10.679688 6.054688 -10.707031 7.359375 -10.71875 C 8.660156 -10.738281 9.75 -10.75 10.625 -10.75 C 11.5 -10.75 12.207031 -10.734375 12.75 -10.703125 C 13.300781 -10.679688 13.71875 -10.65625 14 -10.625 C 14.28125 -10.601562 14.476562 -10.566406 14.59375 -10.515625 C 14.707031 -10.472656 14.785156 -10.421875 14.828125 -10.359375 Z M 14.828125 -10.359375 "/></g></g></g><g fill="#000000" fill-opacity="1"><g transform="translate(133.729987, 30.079623)"><g><path d="M 5.140625 -4 C 5.222656 -3.957031 5.273438 -3.890625 5.296875 -3.796875 C 5.316406 -3.703125 5.300781 -3.613281 5.25 -3.53125 C 5.03125 -3.175781 4.75 -2.78125 4.40625 -2.34375 C 4.070312 -1.914062 3.703125 -1.503906 3.296875 -1.109375 C 2.898438 -0.722656 2.503906 -0.398438 2.109375 -0.140625 C 1.722656 0.117188 1.363281 0.25 1.03125 0.25 C 0.894531 0.25 0.773438 0.222656 0.671875 0.171875 C 0.265625 -0.00390625 0.0390625 -0.425781 0 -1.09375 C -0.03125 -1.769531 0.109375 -2.722656 0.421875 -3.953125 C 0.441406 -4.046875 0.492188 -4.113281 0.578125 -4.15625 C 0.660156 -4.207031 0.742188 -4.222656 0.828125 -4.203125 C 0.921875 -4.171875 0.988281 -4.113281 1.03125 -4.03125 C 1.082031 -3.957031 1.097656 -3.878906 1.078125 -3.796875 C 0.890625 -3.046875 0.769531 -2.453125 0.71875 -2.015625 C 0.675781 -1.578125 0.664062 -1.242188 0.6875 -1.015625 C 0.71875 -0.796875 0.757812 -0.644531 0.8125 -0.5625 C 0.875 -0.488281 0.914062 -0.453125 0.9375 -0.453125 C 1.082031 -0.378906 1.300781 -0.425781 1.59375 -0.59375 C 1.882812 -0.769531 2.210938 -1.023438 2.578125 -1.359375 C 2.941406 -1.691406 3.304688 -2.078125 3.671875 -2.515625 C 4.046875 -2.953125 4.378906 -3.414062 4.671875 -3.90625 C 4.734375 -3.976562 4.804688 -4.023438 4.890625 -4.046875 C 4.972656 -4.066406 5.054688 -4.050781 5.140625 -4 Z M 1 -5.40625 C 0.769531 -5.414062 0.648438 -5.484375 0.640625 -5.609375 C 0.628906 -5.734375 0.679688 -5.859375 0.796875 -5.984375 C 0.910156 -6.117188 1.023438 -6.207031 1.140625 -6.25 C 1.328125 -6.3125 1.460938 -6.300781 1.546875 -6.21875 C 1.640625 -6.132812 1.679688 -6.023438 1.671875 -5.890625 C 1.671875 -5.765625 1.613281 -5.648438 1.5 -5.546875 C 1.382812 -5.441406 1.21875 -5.394531 1 -5.40625 Z M 1 -5.40625 "/></g></g></g><g clip-path="url(#fc75cfa595)"><g clip-path="url(#3bfd2b0101)"><g clip-path="url(#95b960816b)"><g clip-path="url(#5c626ef178)"><path fill="#000000" d="M 143.671875 29.28125 C 144.078125 29.042969 144.539062 29.011719 144.988281 28.976562 C 145.308594 28.949219 145.636719 29.007812 145.957031 29.128906 C 146.457031 29.324219 146.835938 29.652344 147.097656 30.09375 C 147.257812 30.363281 147.371094 30.660156 147.464844 30.957031 C 147.546875 31.222656 147.582031 31.503906 147.617188 31.777344 C 147.671875 32.195312 147.660156 32.609375 147.59375 33.023438 C 147.527344 33.425781 147.445312 33.828125 147.292969 34.207031 C 147.285156 34.226562 147.292969 34.246094 147.292969 34.265625 C 147.320312 34.253906 147.359375 34.253906 147.371094 34.234375 C 147.546875 33.960938 147.785156 33.75 148.015625 33.527344 C 148.257812 33.296875 148.523438 33.101562 148.828125 32.960938 C 149.105469 32.828125 149.390625 32.710938 149.675781 32.605469 C 150.078125 32.460938 150.480469 32.308594 150.894531 32.203125 C 151.320312 32.089844 151.761719 32.074219 152.203125 32.171875 C 152.882812 32.316406 153.441406 32.628906 153.714844 33.292969 C 153.871094 33.675781 153.878906 34.078125 153.765625 34.472656 C 153.703125 34.695312 153.640625 34.921875 153.539062 35.125 C 153.371094 35.476562 153.140625 35.792969 152.886719 36.09375 C 152.511719 36.539062 152.066406 36.914062 151.625 37.292969 C 151.257812 37.609375 150.914062 37.949219 150.550781 38.265625 C 150.324219 38.460938 150.082031 38.636719 149.84375 38.820312 C 149.617188 38.992188 149.390625 39.167969 149.152344 39.332031 C 148.648438 39.679688 148.140625 40.019531 147.632812 40.359375 C 146.980469 40.796875 146.328125 41.238281 145.671875 41.667969 C 145.515625 41.769531 145.335938 41.84375 145.152344 41.898438 C 145 41.949219 144.890625 41.847656 144.84375 41.6875 C 144.804688 41.550781 144.738281 41.421875 144.683594 41.289062 C 144.460938 40.773438 144.222656 40.261719 144.027344 39.738281 C 143.886719 39.363281 143.792969 38.972656 143.691406 38.585938 C 143.609375 38.253906 143.445312 37.960938 143.285156 37.664062 C 143.148438 37.40625 143.003906 37.148438 142.863281 36.894531 C 142.546875 36.339844 142.269531 35.769531 142.042969 35.175781 C 141.871094 34.71875 141.765625 34.253906 141.695312 33.777344 C 141.609375 33.214844 141.636719 32.660156 141.71875 32.109375 C 141.75 31.890625 141.832031 31.679688 141.898438 31.46875 C 141.949219 31.308594 141.996094 31.148438 142.074219 31.003906 C 142.3125 30.554688 142.589844 30.132812 142.996094 29.804688 C 143.214844 29.628906 143.441406 29.457031 143.671875 29.28125 M 150.839844 32.890625 C 150.5625 32.878906 150.292969 32.882812 150.042969 33.015625 C 149.6875 33.203125 149.3125 33.363281 148.976562 33.582031 C 148.570312 33.847656 148.191406 34.148438 147.8125 34.449219 C 147.46875 34.71875 147.257812 35.101562 147.027344 35.460938 C 146.910156 35.640625 146.820312 35.839844 146.710938 36.027344 C 146.609375 36.203125 146.398438 36.226562 146.328125 36.066406 C 146.300781 36 146.351562 35.90625 146.367188 35.828125 C 146.371094 35.800781 146.371094 35.773438 146.371094 35.746094 C 146.34375 35.757812 146.3125 35.765625 146.292969 35.78125 C 146.203125 35.859375 146.121094 35.945312 146.03125 36.023438 C 145.957031 36.082031 145.78125 36.070312 145.742188 36 C 145.695312 35.910156 145.640625 35.820312 145.753906 35.726562 C 145.933594 35.574219 146.105469 35.40625 146.277344 35.242188 C 146.355469 35.167969 146.429688 35.097656 146.425781 34.960938 C 146.40625 34.609375 146.410156 34.257812 146.410156 33.90625 C 146.410156 33.328125 146.324219 32.765625 146.171875 32.207031 C 146.097656 31.921875 146 31.640625 145.910156 31.355469 C 145.734375 30.8125 145.5 30.296875 145.082031 29.878906 C 144.917969 29.714844 144.738281 29.570312 144.492188 29.542969 C 144.269531 29.519531 144.089844 29.636719 143.910156 29.726562 C 143.785156 29.789062 143.671875 29.882812 143.578125 29.984375 C 143.429688 30.148438 143.304688 30.332031 143.257812 30.558594 C 143.222656 30.722656 143.140625 30.882812 143.113281 31.050781 C 143.039062 31.523438 143.023438 32.003906 143.066406 32.484375 C 143.113281 32.980469 143.164062 33.472656 143.234375 33.964844 C 143.308594 34.503906 143.394531 35.042969 143.492188 35.578125 C 143.605469 36.179688 143.730469 36.78125 143.855469 37.382812 C 143.90625 37.617188 143.949219 37.855469 144.042969 38.074219 C 144.140625 38.304688 144.28125 38.523438 144.417969 38.738281 C 144.652344 39.109375 144.882812 39.480469 145.132812 39.84375 C 145.320312 40.117188 145.535156 40.375 145.738281 40.636719 C 145.796875 40.714844 145.851562 40.746094 145.9375 40.671875 C 146.023438 40.601562 146.125 40.546875 146.214844 40.484375 C 146.578125 40.230469 146.941406 39.976562 147.304688 39.722656 C 147.621094 39.5 147.9375 39.277344 148.257812 39.058594 C 148.617188 38.816406 148.980469 38.585938 149.339844 38.34375 C 149.792969 38.03125 150.234375 37.699219 150.699219 37.40625 C 151.363281 36.984375 151.800781 36.382812 152.160156 35.71875 C 152.28125 35.496094 152.363281 35.25 152.445312 35.003906 C 152.53125 34.746094 152.570312 34.476562 152.523438 34.195312 C 152.433594 33.65625 152.140625 33.25 151.625 33.035156 C 151.390625 32.933594 151.113281 32.929688 150.839844 32.890625 M 146.976562 33.828125 C 147.042969 33.519531 147.136719 33.21875 147.164062 32.90625 C 147.195312 32.550781 147.195312 32.183594 147.167969 31.828125 C 147.117188 31.222656 146.957031 30.644531 146.578125 30.136719 C 146.289062 29.75 145.910156 29.511719 145.425781 29.4375 C 145.375 29.429688 145.324219 29.4375 145.273438 29.4375 C 145.308594 29.472656 145.34375 29.507812 145.378906 29.542969 C 145.386719 29.550781 145.394531 29.5625 145.40625 29.570312 C 145.722656 29.859375 145.9375 30.21875 146.101562 30.597656 C 146.261719 30.964844 146.382812 31.351562 146.511719 31.730469 C 146.703125 32.296875 146.785156 32.882812 146.835938 33.46875 C 146.851562 33.671875 146.839844 33.875 146.847656 34.078125 C 146.847656 34.101562 146.871094 34.125 146.886719 34.148438 C 146.902344 34.125 146.925781 34.109375 146.933594 34.085938 C 146.953125 34.007812 146.96875 33.925781 146.976562 33.828125 M 142.675781 30.929688 C 142.632812 30.976562 142.570312 31.011719 142.546875 31.0625 C 142.46875 31.234375 142.40625 31.414062 142.34375 31.589844 C 142.304688 31.695312 142.257812 31.796875 142.238281 31.902344 C 142.179688 32.25 142.121094 32.597656 142.113281 32.953125 C 142.097656 33.65625 142.226562 34.335938 142.464844 35 C 142.585938 35.328125 142.738281 35.644531 142.882812 35.964844 C 142.964844 36.144531 143.054688 36.316406 143.144531 36.492188 C 143.160156 36.519531 143.1875 36.539062 143.210938 36.5625 C 143.210938 36.53125 143.222656 36.496094 143.214844 36.464844 C 143.171875 36.273438 143.109375 36.082031 143.078125 35.886719 C 143 35.457031 142.933594 35.027344 142.871094 34.597656 C 142.785156 34.003906 142.6875 33.414062 142.632812 32.820312 C 142.574219 32.191406 142.519531 31.558594 142.675781 30.929688 M 151.863281 32.679688 C 152.054688 32.726562 152.203125 32.84375 152.347656 32.96875 C 152.753906 33.328125 152.953125 33.789062 153 34.300781 C 153.035156 34.667969 152.964844 35.023438 152.796875 35.351562 C 152.78125 35.375 152.789062 35.414062 152.785156 35.445312 C 152.8125 35.421875 152.855469 35.410156 152.871094 35.382812 C 152.992188 35.136719 153.121094 34.890625 153.226562 34.636719 C 153.292969 34.476562 153.332031 34.296875 153.359375 34.125 C 153.453125 33.492188 153.128906 32.96875 152.515625 32.730469 C 152.3125 32.652344 152.089844 32.617188 151.875 32.566406 C 151.816406 32.554688 151.75 32.5625 151.6875 32.558594 C 151.734375 32.597656 151.785156 32.632812 151.863281 32.679688 M 144.691406 39.972656 C 144.675781 39.945312 144.660156 39.917969 144.636719 39.894531 C 144.609375 39.867188 144.574219 39.84375 144.542969 39.816406 C 144.550781 39.851562 144.550781 39.886719 144.566406 39.917969 C 144.726562 40.285156 144.890625 40.648438 145.0625 41.011719 C 145.078125 41.042969 145.136719 41.074219 145.167969 41.074219 C 145.230469 41.066406 145.296875 41.042969 145.351562 41.007812 C 145.375 40.992188 145.386719 40.921875 145.371094 40.898438 C 145.152344 40.59375 144.925781 40.292969 144.691406 39.972656 Z M 144.691406 39.972656 " fill-opacity="1" fill-rule="nonzero"/></g></g></g></g><g fill="#000000" fill-opacity="1"><g transform="translate(92.717993, 28.680144)"><g><path d="M 5.296875 -2.03125 C 5.390625 -1.875 5.363281 -1.671875 5.21875 -1.421875 C 5.082031 -1.171875 4.84375 -0.898438 4.5 -0.609375 C 4.289062 -0.421875 4.03125 -0.238281 3.71875 -0.0625 C 3.800781 0.113281 3.890625 0.285156 3.984375 0.453125 C 4.078125 0.628906 4.1875 0.789062 4.3125 0.9375 C 4.351562 0.988281 4.367188 1.046875 4.359375 1.109375 C 4.359375 1.179688 4.332031 1.238281 4.28125 1.28125 C 4.238281 1.3125 4.1875 1.328125 4.125 1.328125 C 4.050781 1.328125 3.992188 1.296875 3.953125 1.234375 C 3.703125 0.921875 3.484375 0.554688 3.296875 0.140625 C 2.921875 0.328125 2.53125 0.472656 2.125 0.578125 C 1.726562 0.691406 1.363281 0.742188 1.03125 0.734375 C 0.707031 0.722656 0.46875 0.640625 0.3125 0.484375 C -0.101562 0.0234375 0.289062 -0.796875 1.5 -1.984375 C 1.71875 -2.191406 1.921875 -2.394531 2.109375 -2.59375 C 2.296875 -2.800781 2.46875 -2.992188 2.625 -3.171875 C 2.613281 -3.753906 2.65625 -4.3125 2.75 -4.84375 C 2.832031 -5.351562 2.984375 -5.738281 3.203125 -6 C 3.429688 -6.269531 3.65625 -6.421875 3.875 -6.453125 C 4.144531 -6.492188 4.34375 -6.394531 4.46875 -6.15625 C 4.582031 -5.90625 4.546875 -5.515625 4.359375 -4.984375 C 4.179688 -4.453125 3.757812 -3.789062 3.09375 -3 C 3.101562 -2.601562 3.140625 -2.191406 3.203125 -1.765625 C 3.273438 -1.335938 3.390625 -0.914062 3.546875 -0.5 C 3.785156 -0.644531 4 -0.796875 4.1875 -0.953125 C 4.414062 -1.148438 4.578125 -1.3125 4.671875 -1.4375 C 4.773438 -1.570312 4.835938 -1.675781 4.859375 -1.75 C 4.847656 -1.738281 4.832031 -1.734375 4.8125 -1.734375 C 4.75 -1.710938 4.6875 -1.710938 4.625 -1.734375 C 4.570312 -1.765625 4.535156 -1.8125 4.515625 -1.875 C 4.484375 -1.9375 4.484375 -1.992188 4.515625 -2.046875 C 4.546875 -2.109375 4.59375 -2.148438 4.65625 -2.171875 C 4.875 -2.242188 5.03125 -2.25 5.125 -2.1875 C 5.21875 -2.132812 5.273438 -2.082031 5.296875 -2.03125 Z M 3.203125 -4.765625 C 3.179688 -4.617188 3.160156 -4.460938 3.140625 -4.296875 C 3.128906 -4.140625 3.117188 -3.96875 3.109375 -3.78125 C 3.429688 -4.207031 3.660156 -4.566406 3.796875 -4.859375 C 3.941406 -5.148438 4.023438 -5.382812 4.046875 -5.5625 C 4.066406 -5.75 4.0625 -5.875 4.03125 -5.9375 C 4.019531 -5.96875 4 -5.984375 3.96875 -5.984375 C 3.957031 -5.984375 3.953125 -5.984375 3.953125 -5.984375 C 3.835938 -5.972656 3.703125 -5.863281 3.546875 -5.65625 C 3.390625 -5.445312 3.273438 -5.148438 3.203125 -4.765625 Z M 0.65625 0.15625 C 0.738281 0.25 0.910156 0.289062 1.171875 0.28125 C 1.429688 0.269531 1.734375 0.210938 2.078125 0.109375 C 2.429688 0.015625 2.78125 -0.113281 3.125 -0.28125 C 2.988281 -0.632812 2.878906 -1 2.796875 -1.375 C 2.722656 -1.75 2.675781 -2.125 2.65625 -2.5 C 2.40625 -2.21875 2.128906 -1.929688 1.828125 -1.640625 C 1.429688 -1.253906 1.144531 -0.9375 0.96875 -0.6875 C 0.789062 -0.4375 0.6875 -0.242188 0.65625 -0.109375 C 0.625 0.0234375 0.625 0.113281 0.65625 0.15625 Z M 0.65625 0.15625 "/></g></g></g><g clip-path="url(#0260a64e82)"><g clip-path="url(#dc9c4f7232)"><g clip-path="url(#62c733b009)"><g clip-path="url(#8a3215f93d)"><path fill="#000000" d="M 148.269531 23.488281 C 148.363281 23.230469 148.558594 23.042969 148.742188 22.859375 C 148.878906 22.726562 149.042969 22.628906 149.234375 22.5625 C 149.53125 22.460938 149.824219 22.46875 150.105469 22.566406 C 150.277344 22.625 150.441406 22.71875 150.59375 22.816406 C 150.730469 22.902344 150.851562 23.015625 150.96875 23.125 C 151.152344 23.289062 151.300781 23.480469 151.425781 23.691406 C 151.550781 23.898438 151.664062 24.109375 151.738281 24.335938 C 151.742188 24.347656 151.753906 24.351562 151.757812 24.363281 C 151.765625 24.347656 151.785156 24.332031 151.78125 24.316406 C 151.757812 24.128906 151.785156 23.945312 151.804688 23.757812 C 151.828125 23.566406 151.871094 23.378906 151.953125 23.199219 C 152.03125 23.039062 152.109375 22.878906 152.199219 22.722656 C 152.324219 22.507812 152.449219 22.289062 152.59375 22.085938 C 152.742188 21.875 152.933594 21.703125 153.164062 21.578125 C 153.523438 21.390625 153.890625 21.320312 154.261719 21.511719 C 154.476562 21.625 154.632812 21.804688 154.726562 22.023438 C 154.78125 22.148438 154.839844 22.273438 154.871094 22.402344 C 154.925781 22.621094 154.945312 22.847656 154.945312 23.078125 C 154.945312 23.417969 154.886719 23.753906 154.832031 24.089844 C 154.785156 24.371094 154.757812 24.652344 154.714844 24.929688 C 154.6875 25.101562 154.644531 25.273438 154.609375 25.441406 C 154.570312 25.605469 154.535156 25.769531 154.492188 25.933594 C 154.398438 26.277344 154.296875 26.621094 154.199219 26.964844 C 154.070312 27.40625 153.945312 27.847656 153.8125 28.285156 C 153.78125 28.390625 153.730469 28.492188 153.667969 28.582031 C 153.617188 28.664062 153.53125 28.660156 153.449219 28.605469 C 153.382812 28.558594 153.304688 28.527344 153.230469 28.488281 C 152.9375 28.339844 152.640625 28.199219 152.355469 28.039062 C 152.152344 27.925781 151.960938 27.785156 151.773438 27.648438 C 151.613281 27.53125 151.429688 27.460938 151.246094 27.386719 C 151.085938 27.324219 150.925781 27.261719 150.769531 27.203125 C 150.417969 27.074219 150.078125 26.921875 149.753906 26.738281 C 149.507812 26.601562 149.285156 26.433594 149.074219 26.246094 C 148.828125 26.023438 148.632812 25.765625 148.460938 25.488281 C 148.390625 25.378906 148.351562 25.253906 148.300781 25.132812 C 148.265625 25.042969 148.222656 24.953125 148.203125 24.859375 C 148.140625 24.570312 148.109375 24.277344 148.164062 23.976562 C 148.199219 23.816406 148.234375 23.65625 148.269531 23.488281 M 152.824219 22.414062 C 152.699219 22.511719 152.578125 22.617188 152.519531 22.769531 C 152.429688 22.984375 152.324219 23.199219 152.253906 23.421875 C 152.171875 23.695312 152.117188 23.972656 152.058594 24.246094 C 152.007812 24.5 152.058594 24.75 152.089844 24.996094 C 152.105469 25.121094 152.140625 25.246094 152.160156 25.371094 C 152.183594 25.488281 152.09375 25.578125 152.003906 25.527344 C 151.96875 25.511719 151.957031 25.449219 151.929688 25.410156 C 151.921875 25.394531 151.914062 25.382812 151.902344 25.371094 C 151.894531 25.386719 151.882812 25.398438 151.882812 25.417969 C 151.871094 25.484375 151.867188 25.554688 151.855469 25.621094 C 151.84375 25.675781 151.761719 25.738281 151.71875 25.71875 C 151.664062 25.699219 151.605469 25.679688 151.621094 25.59375 C 151.644531 25.457031 151.65625 25.320312 151.671875 25.179688 C 151.679688 25.117188 151.6875 25.058594 151.632812 25 C 151.492188 24.847656 151.363281 24.6875 151.230469 24.53125 C 151.015625 24.273438 150.761719 24.050781 150.484375 23.859375 C 150.34375 23.761719 150.195312 23.671875 150.050781 23.578125 C 149.765625 23.398438 149.46875 23.257812 149.125 23.226562 C 148.992188 23.214844 148.855469 23.21875 148.738281 23.296875 C 148.628906 23.371094 148.589844 23.492188 148.542969 23.597656 C 148.511719 23.671875 148.496094 23.757812 148.492188 23.839844 C 148.488281 23.96875 148.5 24.097656 148.566406 24.214844 C 148.613281 24.304688 148.636719 24.40625 148.6875 24.488281 C 148.828125 24.730469 149.003906 24.953125 149.203125 25.152344 C 149.410156 25.355469 149.617188 25.558594 149.832031 25.75 C 150.070312 25.964844 150.308594 26.171875 150.554688 26.375 C 150.832031 26.605469 151.113281 26.828125 151.394531 27.046875 C 151.503906 27.132812 151.613281 27.222656 151.738281 27.289062 C 151.867188 27.355469 152.011719 27.398438 152.15625 27.445312 C 152.398438 27.523438 152.640625 27.601562 152.886719 27.671875 C 153.074219 27.722656 153.265625 27.757812 153.457031 27.800781 C 153.511719 27.8125 153.546875 27.804688 153.558594 27.738281 C 153.570312 27.675781 153.59375 27.613281 153.613281 27.550781 C 153.679688 27.300781 153.746094 27.050781 153.8125 26.800781 C 153.871094 26.582031 153.925781 26.363281 153.988281 26.144531 C 154.058594 25.902344 154.132812 25.664062 154.203125 25.417969 C 154.289062 25.109375 154.363281 24.796875 154.457031 24.488281 C 154.597656 24.050781 154.566406 23.617188 154.480469 23.183594 C 154.449219 23.039062 154.390625 22.898438 154.335938 22.757812 C 154.277344 22.609375 154.195312 22.472656 154.070312 22.367188 C 153.824219 22.160156 153.542969 22.085938 153.230469 22.183594 C 153.089844 22.226562 152.964844 22.328125 152.824219 22.414062 M 151.453125 24.285156 C 151.367188 24.121094 151.296875 23.953125 151.191406 23.800781 C 151.070312 23.628906 150.933594 23.464844 150.789062 23.316406 C 150.539062 23.0625 150.25 22.867188 149.890625 22.78125 C 149.617188 22.714844 149.355469 22.75 149.113281 22.898438 C 149.085938 22.914062 149.066406 22.9375 149.046875 22.957031 C 149.074219 22.960938 149.101562 22.960938 149.132812 22.964844 C 149.140625 22.964844 149.148438 22.96875 149.152344 22.96875 C 149.40625 22.976562 149.632812 23.058594 149.851562 23.167969 C 150.0625 23.269531 150.257812 23.398438 150.457031 23.519531 C 150.757812 23.699219 151.011719 23.933594 151.257812 24.175781 C 151.339844 24.261719 151.410156 24.355469 151.492188 24.445312 C 151.5 24.457031 151.519531 24.457031 151.53125 24.460938 C 151.53125 24.445312 151.535156 24.429688 151.53125 24.417969 C 151.511719 24.375 151.488281 24.332031 151.453125 24.285156 M 148.445312 24.601562 C 148.441406 24.636719 148.429688 24.675781 148.4375 24.710938 C 148.46875 24.816406 148.507812 24.917969 148.542969 25.023438 C 148.566406 25.082031 148.582031 25.148438 148.617188 25.203125 C 148.71875 25.378906 148.820312 25.558594 148.953125 25.71875 C 149.210938 26.039062 149.523438 26.296875 149.878906 26.503906 C 150.054688 26.605469 150.242188 26.6875 150.429688 26.777344 C 150.53125 26.828125 150.636719 26.871094 150.742188 26.917969 C 150.757812 26.921875 150.777344 26.921875 150.796875 26.921875 C 150.785156 26.90625 150.777344 26.886719 150.765625 26.878906 C 150.671875 26.808594 150.574219 26.746094 150.484375 26.671875 C 150.289062 26.507812 150.097656 26.339844 149.910156 26.167969 C 149.648438 25.9375 149.382812 25.710938 149.136719 25.464844 C 148.875 25.207031 148.609375 24.941406 148.445312 24.601562 M 153.207031 21.933594 C 153.308594 21.882812 153.417969 21.878906 153.527344 21.882812 C 153.84375 21.890625 154.105469 22.023438 154.320312 22.234375 C 154.472656 22.386719 154.578125 22.570312 154.625 22.78125 C 154.628906 22.796875 154.644531 22.8125 154.652344 22.828125 C 154.660156 22.808594 154.671875 22.785156 154.667969 22.765625 C 154.632812 22.609375 154.597656 22.453125 154.546875 22.300781 C 154.515625 22.203125 154.46875 22.109375 154.414062 22.019531 C 154.21875 21.703125 153.878906 21.589844 153.515625 21.714844 C 153.394531 21.753906 153.28125 21.820312 153.167969 21.878906 C 153.136719 21.898438 153.109375 21.925781 153.082031 21.949219 C 153.117188 21.945312 153.152344 21.941406 153.207031 21.933594 M 152.738281 27.894531 C 152.722656 27.890625 152.703125 27.882812 152.6875 27.878906 C 152.664062 27.878906 152.640625 27.878906 152.613281 27.878906 C 152.628906 27.890625 152.644531 27.910156 152.664062 27.917969 C 152.871094 28.019531 153.082031 28.121094 153.296875 28.21875 C 153.3125 28.230469 153.351562 28.222656 153.367188 28.207031 C 153.390625 28.179688 153.410156 28.144531 153.421875 28.109375 C 153.425781 28.09375 153.40625 28.058594 153.390625 28.054688 C 153.179688 28 152.964844 27.949219 152.738281 27.894531 Z M 152.738281 27.894531 " fill-opacity="1" fill-rule="nonzero"/></g></g></g></g><g clip-path="url(#10adc141f4)"><g clip-path="url(#1ba7f61519)"><g clip-path="url(#773da24a3e)"><g clip-path="url(#745e1761f8)"><path fill="#000000" d="M 154.492188 30.324219 C 154.585938 30.066406 154.78125 29.878906 154.964844 29.695312 C 155.101562 29.5625 155.269531 29.464844 155.457031 29.402344 C 155.753906 29.296875 156.046875 29.304688 156.328125 29.402344 C 156.5 29.460938 156.664062 29.554688 156.816406 29.652344 C 156.953125 29.738281 157.074219 29.851562 157.191406 29.960938 C 157.375 30.125 157.523438 30.316406 157.648438 30.523438 C 157.769531 30.730469 157.882812 30.941406 157.960938 31.167969 C 157.960938 31.179688 157.972656 31.183594 157.980469 31.195312 C 157.988281 31.179688 158.003906 31.164062 158.003906 31.148438 C 157.980469 30.964844 158.007812 30.777344 158.027344 30.59375 C 158.050781 30.398438 158.09375 30.210938 158.175781 30.035156 C 158.253906 29.871094 158.332031 29.710938 158.421875 29.558594 C 158.546875 29.339844 158.671875 29.125 158.816406 28.917969 C 158.964844 28.710938 159.15625 28.539062 159.386719 28.414062 C 159.746094 28.226562 160.113281 28.15625 160.484375 28.347656 C 160.699219 28.460938 160.855469 28.640625 160.949219 28.859375 C 161.003906 28.980469 161.0625 29.105469 161.09375 29.234375 C 161.148438 29.457031 161.164062 29.683594 161.164062 29.910156 C 161.164062 30.25 161.109375 30.585938 161.050781 30.921875 C 161.007812 31.199219 160.980469 31.480469 160.9375 31.757812 C 160.910156 31.929688 160.867188 32.101562 160.828125 32.269531 C 160.792969 32.433594 160.757812 32.597656 160.710938 32.757812 C 160.617188 33.101562 160.515625 33.445312 160.417969 33.789062 C 160.292969 34.230469 160.167969 34.671875 160.03125 35.109375 C 160 35.214844 159.949219 35.3125 159.886719 35.40625 C 159.835938 35.484375 159.75 35.480469 159.671875 35.429688 C 159.601562 35.382812 159.523438 35.347656 159.449219 35.3125 C 159.15625 35.164062 158.859375 35.023438 158.574219 34.863281 C 158.371094 34.75 158.183594 34.609375 157.992188 34.472656 C 157.832031 34.359375 157.648438 34.289062 157.464844 34.214844 C 157.308594 34.152344 157.148438 34.089844 156.988281 34.03125 C 156.640625 33.898438 156.300781 33.75 155.976562 33.570312 C 155.730469 33.429688 155.507812 33.261719 155.296875 33.074219 C 155.046875 32.855469 154.851562 32.597656 154.683594 32.320312 C 154.613281 32.210938 154.570312 32.085938 154.523438 31.964844 C 154.484375 31.878906 154.445312 31.789062 154.425781 31.695312 C 154.363281 31.402344 154.328125 31.109375 154.386719 30.8125 C 154.417969 30.652344 154.457031 30.492188 154.492188 30.324219 M 159.050781 29.25 C 158.921875 29.347656 158.800781 29.453125 158.738281 29.601562 C 158.652344 29.820312 158.546875 30.035156 158.476562 30.257812 C 158.394531 30.527344 158.339844 30.804688 158.28125 31.078125 C 158.230469 31.332031 158.28125 31.578125 158.308594 31.828125 C 158.324219 31.953125 158.359375 32.074219 158.382812 32.199219 C 158.402344 32.316406 158.316406 32.40625 158.226562 32.359375 C 158.1875 32.339844 158.175781 32.28125 158.152344 32.238281 C 158.144531 32.226562 158.132812 32.214844 158.125 32.199219 C 158.117188 32.214844 158.105469 32.230469 158.101562 32.246094 C 158.09375 32.3125 158.089844 32.382812 158.074219 32.453125 C 158.066406 32.507812 157.980469 32.566406 157.9375 32.550781 C 157.882812 32.527344 157.828125 32.507812 157.839844 32.421875 C 157.863281 32.289062 157.878906 32.148438 157.894531 32.011719 C 157.898438 31.949219 157.90625 31.886719 157.855469 31.828125 C 157.714844 31.679688 157.582031 31.519531 157.453125 31.363281 C 157.234375 31.105469 156.984375 30.886719 156.707031 30.691406 C 156.566406 30.59375 156.417969 30.503906 156.269531 30.414062 C 155.988281 30.234375 155.691406 30.09375 155.347656 30.0625 C 155.214844 30.050781 155.078125 30.054688 154.960938 30.132812 C 154.851562 30.207031 154.8125 30.324219 154.765625 30.433594 C 154.734375 30.507812 154.71875 30.59375 154.714844 30.675781 C 154.710938 30.804688 154.722656 30.929688 154.789062 31.050781 C 154.835938 31.136719 154.855469 31.238281 154.90625 31.324219 C 155.050781 31.5625 155.226562 31.785156 155.425781 31.984375 C 155.628906 32.1875 155.839844 32.386719 156.054688 32.582031 C 156.289062 32.792969 156.53125 33.003906 156.777344 33.203125 C 157.050781 33.433594 157.332031 33.65625 157.613281 33.875 C 157.722656 33.960938 157.832031 34.050781 157.957031 34.113281 C 158.085938 34.183594 158.234375 34.226562 158.375 34.269531 C 158.617188 34.347656 158.863281 34.425781 159.109375 34.496094 C 159.296875 34.546875 159.488281 34.582031 159.675781 34.625 C 159.730469 34.636719 159.765625 34.628906 159.777344 34.5625 C 159.789062 34.5 159.8125 34.4375 159.832031 34.375 C 159.898438 34.125 159.964844 33.875 160.03125 33.628906 C 160.089844 33.410156 160.148438 33.191406 160.210938 32.972656 C 160.277344 32.730469 160.355469 32.492188 160.425781 32.246094 C 160.511719 31.9375 160.582031 31.625 160.679688 31.320312 C 160.816406 30.882812 160.789062 30.449219 160.699219 30.019531 C 160.671875 29.871094 160.613281 29.730469 160.558594 29.59375 C 160.5 29.441406 160.417969 29.308594 160.292969 29.199219 C 160.046875 28.992188 159.765625 28.921875 159.453125 29.019531 C 159.3125 29.0625 159.1875 29.164062 159.050781 29.25 M 157.675781 31.117188 C 157.589844 30.957031 157.515625 30.785156 157.414062 30.632812 C 157.292969 30.460938 157.15625 30.300781 157.011719 30.152344 C 156.761719 29.898438 156.472656 29.703125 156.113281 29.617188 C 155.839844 29.550781 155.578125 29.589844 155.335938 29.734375 C 155.308594 29.75 155.289062 29.773438 155.269531 29.792969 C 155.296875 29.796875 155.324219 29.796875 155.355469 29.800781 C 155.363281 29.800781 155.371094 29.804688 155.378906 29.804688 C 155.628906 29.8125 155.855469 29.894531 156.074219 30.003906 C 156.285156 30.105469 156.480469 30.234375 156.679688 30.355469 C 156.980469 30.535156 157.234375 30.765625 157.476562 31.007812 C 157.5625 31.09375 157.632812 31.1875 157.710938 31.277344 C 157.71875 31.289062 157.738281 31.289062 157.753906 31.292969 C 157.753906 31.277344 157.757812 31.261719 157.753906 31.25 C 157.730469 31.207031 157.707031 31.164062 157.675781 31.117188 M 154.667969 31.433594 C 154.664062 31.472656 154.648438 31.511719 154.660156 31.542969 C 154.691406 31.648438 154.730469 31.75 154.765625 31.855469 C 154.789062 31.914062 154.804688 31.980469 154.835938 32.035156 C 154.941406 32.210938 155.042969 32.386719 155.175781 32.550781 C 155.429688 32.871094 155.742188 33.125 156.097656 33.332031 C 156.277344 33.433594 156.464844 33.519531 156.648438 33.605469 C 156.75 33.65625 156.855469 33.699219 156.960938 33.742188 C 156.980469 33.75 157 33.75 157.019531 33.75 C 157.007812 33.734375 157 33.714844 156.984375 33.707031 C 156.890625 33.636719 156.792969 33.574219 156.707031 33.5 C 156.511719 33.335938 156.320312 33.167969 156.128906 33 C 155.871094 32.765625 155.605469 32.539062 155.355469 32.296875 C 155.09375 32.039062 154.832031 31.773438 154.667969 31.433594 M 159.429688 28.769531 C 159.53125 28.71875 159.640625 28.714844 159.75 28.71875 C 160.070312 28.726562 160.328125 28.855469 160.542969 29.070312 C 160.695312 29.21875 160.800781 29.402344 160.847656 29.613281 C 160.851562 29.632812 160.867188 29.644531 160.875 29.660156 C 160.882812 29.640625 160.894531 29.617188 160.890625 29.601562 C 160.855469 29.445312 160.820312 29.285156 160.769531 29.136719 C 160.738281 29.039062 160.691406 28.941406 160.636719 28.855469 C 160.441406 28.535156 160.101562 28.425781 159.738281 28.550781 C 159.617188 28.589844 159.503906 28.65625 159.390625 28.714844 C 159.359375 28.734375 159.332031 28.761719 159.304688 28.785156 C 159.339844 28.78125 159.375 28.777344 159.429688 28.769531 M 158.960938 34.71875 C 158.941406 34.714844 158.925781 34.707031 158.90625 34.703125 C 158.882812 34.703125 158.859375 34.703125 158.835938 34.703125 C 158.851562 34.71875 158.863281 34.734375 158.882812 34.742188 C 159.09375 34.84375 159.300781 34.945312 159.515625 35.042969 C 159.53125 35.050781 159.570312 35.046875 159.585938 35.03125 C 159.609375 35.003906 159.632812 34.96875 159.640625 34.933594 C 159.644531 34.917969 159.625 34.882812 159.609375 34.878906 C 159.398438 34.824219 159.183594 34.773438 158.960938 34.71875 Z M 158.960938 34.71875 " fill-opacity="1" fill-rule="nonzero"/></g></g></g></g><g clip-path="url(#9e00049618)"><g clip-path="url(#647b6d8da9)"><g clip-path="url(#c0f85a463e)"><g clip-path="url(#9d9fee0757)"><path fill="#030404" d="M 74.066406 14.371094 C 74.0625 14.460938 74.175781 14.519531 74.175781 14.726562 C 74.179688 14.933594 74.003906 17.160156 74.304688 18.171875 C 74.609375 19.183594 75.300781 19.996094 76.667969 20.390625 C 78.300781 20.84375 79.425781 20.171875 80.1875 19.324219 C 80.953125 18.476562 81.257812 17.257812 81.453125 16.832031 C 81.566406 16.492188 82 16.285156 82.335938 16.386719 C 82.667969 16.488281 82.910156 16.902344 82.8125 17.246094 C 82.738281 17.707031 82.3125 18.890625 82.46875 20.019531 C 82.625 21.148438 83.183594 22.332031 84.792969 22.871094 C 86.144531 23.308594 87.175781 23.023438 87.992188 22.351562 C 88.8125 21.679688 89.910156 19.734375 90.027344 19.5625 C 90.144531 19.394531 90.269531 19.410156 90.316406 19.332031 C 90.363281 19.253906 90.65625 18.652344 90.5 18.441406 C 90.347656 18.234375 89.421875 16.960938 87.308594 16.292969 C 85.027344 15.597656 84.007812 16.066406 84.007812 16.066406 C 84.007812 16.066406 83.597656 15.898438 83.296875 15.804688 C 83.042969 15.730469 82.113281 15.445312 81.859375 15.367188 C 81.558594 15.273438 81.125 15.1875 81.125 15.1875 C 81.125 15.1875 80.542969 14.230469 78.261719 13.53125 C 76.136719 12.90625 74.65625 13.445312 74.410156 13.53125 C 74.167969 13.617188 74.074219 14.277344 74.066406 14.371094 Z M 84 16.59375 C 84.777344 16.121094 85.953125 16.273438 86.84375 16.589844 C 87.972656 16.910156 88.949219 17.714844 89.203125 18.324219 C 89.453125 18.929688 89.441406 19.40625 89.136719 20.191406 C 88.832031 20.972656 87.9375 22.242188 86.9375 22.582031 C 85.9375 22.921875 84.066406 22.613281 83.238281 21.273438 C 82.71875 20.261719 82.835938 19.328125 82.980469 18.566406 C 83.125 17.804688 83.21875 17.070312 84 16.59375 Z M 75.554688 14.15625 C 76.105469 13.792969 77.367188 13.671875 78.480469 14.035156 C 79.394531 14.273438 80.457031 14.800781 80.835938 15.628906 C 81.21875 16.460938 80.886719 17.121094 80.578125 17.832031 C 80.273438 18.546875 79.847656 19.386719 78.847656 19.933594 C 77.414062 20.582031 75.691406 19.792969 75.050781 18.953125 C 74.410156 18.113281 74.382812 16.5625 74.566406 15.742188 C 74.75 14.921875 75.007812 14.519531 75.554688 14.15625 Z M 75.554688 14.15625 " fill-opacity="1" fill-rule="nonzero"/></g></g></g></g></svg>